HIERARCHY
ROOT Hips
{
	OFFSET 0.00000 0.00000 0.00000
	CHANNELS 6 Xposition Yposition Zposition Yrotation Zrotation Xrotation 
	JOINT Lumbar
	{
		OFFSET 0 0 0
		CHANNELS 3 Zrotation Xrotation Yrotation
		JOINT Neck
		{
			OFFSET 0.00 0.2701 0.00
			CHANNELS 3 Zrotation Xrotation Yrotation
			End Site
			{
				OFFSET 0.00 0.1379 0.00
			}
		}
		JOINT RightShoulder
		{
			OFFSET 0.0119 0.2289 0.1181
			CHANNELS 3 Zrotation Xrotation Yrotation
			JOINT RightElbow
			{
				OFFSET 0.00 -0.1475 0.00
				CHANNELS 2 Zrotation Yrotation
				JOINT RightWrist
				{
					OFFSET 0.00 -0.1605 0.00
					CHANNELS 2 Zrotation Xrotation
					End Site
					{
						OFFSET 0.0040 -0.1068 0.0006
					}
				}
			}
		}
		JOINT LeftShoulder
		{
			OFFSET 0.0119 0.2289 -0.1181
			CHANNELS 3 Zrotation Xrotation Yrotation
			JOINT LeftElbow
			{
				OFFSET 0.00 -0.1475 0.00
				CHANNELS 2 Zrotation Yrotation
				JOINT LeftWrist
				{
					OFFSET 0.00 -0.1605 0.00
					CHANNELS 2 Zrotation Xrotation
					End Site
					{
						OFFSET 0.0040 -0.1068 -0.0006
					}
				}
			}
		}
	}
	JOINT RightHip
	{
		OFFSET 0.0316 -0.0424 0.0458
		CHANNELS 3 Zrotation Xrotation Yrotation
		JOINT RightKnee
		{
			OFFSET 0.00 -0.2438 0.00
			CHANNELS 1 Zrotation
			JOINT RightAnkle
			{
				OFFSET 0.00 -0.2449 0.00
				CHANNELS 3 Zrotation Xrotation Yrotation
				End Site
				{
					OFFSET 0.1237 -0.0542 0.0051
				}
			}
		}
	}
	JOINT LeftHip
	{
		OFFSET 0.0316 -0.0424 -0.0458
		CHANNELS 3 Zrotation Xrotation Yrotation
		JOINT LeftKnee
		{
			OFFSET 0.00 -0.2438 0.00
			CHANNELS 1 Zrotation
			JOINT LeftAnkle
			{
				OFFSET 0.00 -0.2449 0.00
				CHANNELS 3 Zrotation Xrotation Yrotation
				End Site
				{
					OFFSET 0.1237 -0.0542 -0.0051
				}
			}
		}
	}
}
MOTION
Frames: 13
Frame Time: 0.02
-0.00114 -0.01981 -0.06897 -177.29206 -27.04513 -9.89292 42.38538 7.2156 -12.99704 -2.54591 -5.06081 -2.11481 -60.9006 -55.00172 43.96645 110.50071 80.88198 -7.98608 -1.89177 45.43145 -11.75958 -16.78622 128.15207 -82.27798 3.88671 2.55623 29.9013 10.50566 -30.3371 -21.6366 -7.3611 0.44198 -2.11509 45.97936 1.46488 21.2763 -57.61589 -9.44498 0.66586 2.68673
-0.00151 -0.01991 -0.06929 -177.2733 -26.99291 -9.9007 42.39167 7.16058 -12.93394 -2.70429 -5.02406 -2.11482 -60.86879 -55.08124 44.00367 110.4507 80.78583 -7.95307 -1.94983 45.16507 -11.6667 -16.80291 128.19739 -82.29649 4.063 2.55981 29.79386 10.53309 -30.49417 -21.64185 -7.70091 0.20327 -2.22588 45.93059 1.42883 21.05622 -57.67347 -9.41496 0.67661 2.6919
-0.00199 -0.02001 -0.0696 -177.27838 -26.91175 -9.90475 42.40485 7.10885 -12.8225 -2.8706 -4.97172 -2.11483 -60.8882 -55.12856 43.98863 110.39207 80.65095 -7.87951 -1.98802 44.86543 -11.55904 -16.83169 128.24764 -82.3185 4.26172 2.56004 29.63306 10.54935 -30.70974 -21.64129 -7.52654 0.35362 -2.14976 45.82603 1.34707 20.77265 -57.68567 -9.36887 0.69611 2.70099
-0.00243 -0.0201 -0.0699 -177.27418 -26.84439 -9.91005 42.42032 7.05633 -12.73264 -3.03847 -4.92514 -2.11484 -60.88093 -55.20064 44.00273 110.34097 80.54106 -7.82937 -2.03761 44.57157 -11.46271 -16.851 128.29684 -82.33772 4.4623 2.5555 29.49692 10.57076 -30.88921 -21.64249 -7.60571 0.31138 -2.16621 45.73515 1.28606 20.53504 -57.70232 -9.32802 0.71213 2.70843
-0.00285 -0.02021 -0.07025 -177.26141 -26.77401 -9.91684 42.41378 6.99975 -12.646 -3.18529 -4.88562 -2.11486 -60.88044 -55.23513 44.00426 110.27614 80.40026 -7.76129 -2.08013 44.3133 -11.35594 -16.88382 128.34139 -82.36014 4.61992 2.57659 29.35821 10.59247 -31.10716 -21.6472 -7.63807 0.30796 -2.16372 45.69196 1.22621 20.22742 -57.78769 -9.29587 0.72577 2.71522
-0.00333 -0.02028 -0.0705 -177.27364 -26.7031 -9.92006 42.45449 6.95328 -12.54059 -3.37762 -4.82665 -2.11487 -60.88063 -55.33925 44.01504 110.23686 80.31464 -7.71848 -2.13175 43.97515 -11.25955 -16.89305 128.39652 -82.3789 4.8672 2.545 29.21256 10.61056 -31.25974 -21.64343 -7.6317 0.32678 -2.1512 45.53724 1.15156 20.04787 -57.71859 -9.24174 0.74687 2.72448
-0.00398 -0.02022 -0.07051 -177.34054 -26.6384 -9.91113 42.62229 6.92836 -12.39546 -3.69267 -4.724 -2.11488 -60.87259 -55.6325 44.07175 110.27502 80.38905 -7.76951 -2.21043 43.41546 -11.24842 -16.82807 128.4813 -82.36782 5.38385 2.35437 29.05991 10.62259 -31.21463 -21.61605 -7.64248 0.31184 -2.15674 45.08314 1.06175 20.2604 -57.23977 -9.1316 0.7824 2.73763
-0.00469 -0.02011 -0.07041 -177.43371 -26.57401 -9.89942 42.83733 6.91469 -12.23314 -4.05327 -4.60112 -2.11489 -60.86344 -55.99865 44.13689 110.33796 80.52028 -7.84352 -2.29895 42.77823 -11.23697 -16.73998 128.57615 -82.35586 5.98505 2.11333 28.90236 10.6311 -31.10257 -21.58063 -7.62701 0.30989 -2.15672 44.52023 0.95639 20.59994 -56.60675 -8.9999 0.8258 2.75347
-0.00537 -0.02003 -0.07034 -177.5204 -26.50931 -9.89099 43.03196 6.89952 -12.07792 -4.39359 -4.4832 -2.1149 -60.85522 -56.33709 44.19169 110.38653 80.62707 -7.89874 -2.38453 42.18347 -11.19144 -16.66746 128.66542 -82.35745 6.52767 1.90493 28.74782 10.64032 -31.02312 -21.54999 -7.61944 0.30584 -2.15741 44.0101 0.84811 20.866 -56.03967 -8.8774 0.86832 2.76943
-0.00608 -0.01993 -0.07034 -177.58418 -26.44479 -9.8736 43.22328 6.86894 -11.92284 -4.73258 -4.38228 -2.11491 -60.84975 -56.64941 44.27191 110.44875 80.72806 -7.99184 -2.46334 41.55876 -11.29338 -16.57585 128.75947 -82.30613 7.15235 1.65592 28.58828 10.65276 -30.93603 -21.51447 -7.61181 0.29847 -2.15964 43.48231 0.7786 21.19545 -55.48545 -8.75628 0.90007 2.78001
-0.00672 -0.01985 -0.07017 -177.70245 -26.37974 -9.87466 43.43152 6.87343 -11.76551 -5.08484 -4.24181 -2.11493 -60.83402 -57.03665 44.30235 110.48749 80.85338 -8.00695 -2.55842 40.97624 -11.08398 -16.51594 128.84541 -82.36163 7.63076 1.47884 28.43845 10.65801 -30.84872 -21.48717 -7.60441 0.29654 -2.15955 42.96823 0.62751 21.42503 -54.87219 -8.62811 0.9556 2.8022
-0.00717 -0.01981 -0.06953 -177.95711 -26.3185 -9.92377 43.68434 6.96886 -11.59367 -5.46444 -3.99314 -2.11494 -60.8219 -57.58973 44.18726 110.46463 81.0467 -7.84517 -2.69959 40.54771 -10.04945 -16.57005 128.90958 -82.73947 7.64328 1.5193 28.3192 10.64224 -30.77175 -21.4856 -7.60662 0.30234 -2.15629 42.50286 0.23583 21.33763 -54.10305 -8.47977 1.0782 2.85734
-0.00754 -0.01979 -0.06873 -178.26667 -26.25593 -9.99207 43.9508 7.0996 -11.42277 -5.85548 -3.7063 -2.11495 -60.79379 -58.22069 44.02221 110.4158 81.25971 -7.59654 -2.8563 40.16056 -8.69409 -16.65298 128.96394 -83.21983 7.51393 1.63289 28.20987 10.6197 -30.69718 -21.49239 -7.6119 0.31201 -2.15146 42.05917 -0.23353 21.14748 -53.28683 -8.32646 1.22374 2.92377
